<svg width="41" height="39" viewBox="0 0 41 39" fill="none" xmlns="http://www.w3.org/2000/svg">
<path d="M2.25285 1.94578H39.1935V37.0542H2.25285V1.94578ZM0.573212 38.6953H40.8731V0.304688H0.573212V38.6953ZM27.7426 16.0547C26.4155 16.0547 25.9622 16.7114 25.9622 17.2528C25.9622 17.8434 26.2644 18.2541 28.0448 19.1555C30.6816 20.4028 31.4991 21.5995 31.4991 23.3559C31.4991 25.9814 29.451 27.3919 26.6804 27.3919C25.4913 27.4349 24.3095 27.1936 23.2376 26.6887C23.1196 26.6395 23.1037 26.558 23.1037 26.4258V24.0112C23.1037 23.8467 23.1872 23.7975 23.3052 23.8805C24.3119 24.5129 25.4836 24.8488 26.6804 24.848C28.0074 24.848 28.5615 24.3066 28.5615 23.5683C28.5615 22.9777 28.1758 22.4531 26.4789 21.5995C24.094 20.4844 23.1037 19.3495 23.1037 17.4652C23.1037 15.3488 24.7992 13.5938 27.7382 13.5938C28.7613 13.5508 29.7828 13.7071 30.7435 14.0536C30.7988 14.0887 30.8435 14.1375 30.8731 14.1951C30.9027 14.2527 30.9161 14.3169 30.9119 14.3813V16.6313C30.9119 16.762 30.8284 16.845 30.66 16.7958C29.7722 16.2964 28.7625 16.0413 27.7382 16.0575L27.7426 16.0547ZM13.3008 18.0066C13.6865 18.0389 13.9888 18.0389 14.6609 18.0389C16.6255 18.0389 18.4721 17.3667 18.4721 14.7581C18.4721 12.6741 17.1451 11.625 14.9128 11.625C14.2406 11.625 13.603 11.6573 13.3008 11.6742V18.0066ZM10.3114 9.28781C10.3114 9.1725 10.546 9.09094 10.6813 9.09094C12.1246 9.03331 13.569 9.00612 15.0135 9.00937C19.6653 9.00937 21.4788 11.5027 21.4788 14.6864C21.4788 18.8531 18.3887 20.6419 14.5947 20.6419C13.9571 20.6419 13.7383 20.6095 13.285 20.6095V26.9095C13.285 27.0403 13.2346 27.1064 13.0835 27.1064H10.5143C10.3805 27.1064 10.3128 27.0572 10.3128 26.9095V9.29484L10.3114 9.28781Z" fill="#31C5F0"/>
</svg>
