<svg width="47" height="45" viewBox="0 0 47 45" fill="none" xmlns="http://www.w3.org/2000/svg">
<path d="M5.25574 4.9458H42.1964V40.0542H5.25574V4.9458Z" fill="#1C0A00"/>
<path d="M5.25573 4.94578H42.1964V40.0542H5.25573V4.94578ZM3.57321 41.6953H43.8731V3.30469H3.57321V41.6953ZM29.9697 16.9875C29.9697 16.8567 30.02 16.7906 30.1712 16.7906H32.8079C32.9418 16.7906 33.0094 16.8398 33.0094 16.9875V29.932C33.0094 30.0628 32.9763 30.1289 32.8079 30.1289H30.2071C30.0387 30.1289 29.9884 30.0473 29.9884 29.9152V16.9875H29.9711H29.9697ZM29.7854 13.2638C29.7854 12.8199 29.9659 12.3943 30.2871 12.0805C30.6083 11.7666 31.0439 11.5903 31.4982 11.5903C31.9524 11.5903 32.3881 11.7666 32.7093 12.0805C33.0305 12.3943 33.2109 12.8199 33.2109 13.2638C33.2275 13.4905 33.1935 13.718 33.1111 13.9306C33.0288 14.1432 32.9001 14.3357 32.7341 14.4949C32.568 14.6541 32.3685 14.7761 32.1494 14.8525C31.9303 14.9288 31.6968 14.9577 31.4651 14.9372C31.2381 14.9511 31.0107 14.9171 30.7983 14.8374C30.586 14.7577 30.3937 14.6343 30.2346 14.4755C30.0755 14.3167 29.9533 14.1263 29.8763 13.9172C29.7993 13.7081 29.7693 13.4852 29.7883 13.2638H29.7854ZM22.2292 22.3861C21.7585 20.558 20.646 16.5952 20.2315 14.6756H20.1984C19.8457 16.5952 18.9563 19.8436 18.251 22.3861H22.2292ZM17.5616 25.0439L16.2346 29.9658C16.2015 30.0966 16.1511 30.1303 15.9827 30.1303H13.5172C13.3488 30.1303 13.3157 30.0811 13.3488 29.8842L18.1172 13.5717C18.2332 13.127 18.2898 12.6694 18.2856 12.2105C18.2856 12.0952 18.3359 12.0459 18.4194 12.0459H21.9457C22.0637 12.0459 22.1141 12.0783 22.1472 12.2105L27.4869 29.9123C27.52 30.0431 27.4869 30.1261 27.353 30.1261H24.5651C24.4313 30.1261 24.3464 30.0938 24.3133 29.9855L22.9359 25.0467H17.563L17.5616 25.0439Z" fill="#FF7F18"/>
</svg>
